<svg width="119" height="35" viewBox="0 0 119 35" fill="none" xmlns="http://www.w3.org/2000/svg">
<path d="M7.992 0.735999V27.76H20.952L20.136 34H0.12V0.735999H7.992ZM45.3863 34H38.8103L38.4743 30.784C36.6183 33.472 34.0423 34.816 30.7463 34.816C28.4103 34.816 26.6343 34.112 25.4183 32.704C24.2343 31.296 23.6423 29.328 23.6423 26.8V8.512H31.2263V25.84C31.2263 27.088 31.4183 27.968 31.8023 28.48C32.2183 28.96 32.8423 29.2 33.6743 29.2C35.2743 29.2 36.6503 28.208 37.8023 26.224V8.512H45.3863V34ZM62.391 7.696C64.151 7.696 65.735 7.952 67.143 8.464C68.551 8.976 69.879 9.76 71.127 10.816L67.863 15.328C66.263 14.112 64.647 13.504 63.015 13.504C61.319 13.504 60.039 14.128 59.175 15.376C58.311 16.624 57.879 18.64 57.879 21.424C57.879 24.112 58.311 26.016 59.175 27.136C60.039 28.256 61.287 28.816 62.919 28.816C63.783 28.816 64.567 28.688 65.271 28.432C65.975 28.144 66.823 27.696 67.815 27.088L71.127 31.792C68.599 33.808 65.735 34.816 62.535 34.816C59.943 34.816 57.703 34.272 55.815 33.184C53.927 32.064 52.471 30.512 51.447 28.528C50.423 26.512 49.911 24.16 49.911 21.472C49.911 18.784 50.423 16.4 51.447 14.32C52.471 12.24 53.927 10.624 55.815 9.472C57.703 8.288 59.895 7.696 62.391 7.696ZM94.107 26.608C94.107 27.568 94.235 28.272 94.491 28.72C94.779 29.168 95.227 29.504 95.835 29.728L94.251 34.672C92.683 34.544 91.403 34.208 90.411 33.664C89.419 33.088 88.651 32.192 88.107 30.976C86.443 33.536 83.883 34.816 80.427 34.816C77.899 34.816 75.883 34.08 74.379 32.608C72.875 31.136 72.123 29.216 72.123 26.848C72.123 24.064 73.147 21.936 75.195 20.464C77.243 18.992 80.203 18.256 84.075 18.256H86.667V17.152C86.667 15.648 86.347 14.624 85.707 14.08C85.067 13.504 83.947 13.216 82.347 13.216C81.515 13.216 80.507 13.344 79.323 13.6C78.139 13.824 76.923 14.144 75.675 14.56L73.947 9.568C75.547 8.96 77.179 8.496 78.843 8.176C80.539 7.856 82.107 7.696 83.547 7.696C87.195 7.696 89.867 8.448 91.563 9.952C93.259 11.456 94.107 13.712 94.107 16.72V26.608ZM82.635 29.392C84.363 29.392 85.707 28.576 86.667 26.944V22.432H84.795C83.067 22.432 81.771 22.736 80.907 23.344C80.075 23.952 79.659 24.896 79.659 26.176C79.659 27.2 79.915 28 80.427 28.576C80.971 29.12 81.707 29.392 82.635 29.392ZM108.655 7.696C110.479 7.696 112.191 7.968 113.791 8.512C115.391 9.056 116.799 9.824 118.015 10.816L115.231 15.088C113.151 13.776 111.055 13.12 108.943 13.12C107.951 13.12 107.183 13.296 106.639 13.648C106.127 13.968 105.871 14.432 105.871 15.04C105.871 15.52 105.983 15.92 106.207 16.24C106.463 16.528 106.959 16.832 107.695 17.152C108.431 17.472 109.567 17.856 111.103 18.304C113.759 19.072 115.727 20.08 117.007 21.328C118.319 22.544 118.975 24.24 118.975 26.416C118.975 28.144 118.479 29.648 117.487 30.928C116.495 32.176 115.135 33.136 113.407 33.808C111.679 34.48 109.759 34.816 107.647 34.816C105.503 34.816 103.503 34.48 101.647 33.808C99.8231 33.136 98.2711 32.208 96.9911 31.024L100.687 26.896C102.831 28.56 105.087 29.392 107.455 29.392C108.607 29.392 109.503 29.184 110.143 28.768C110.815 28.352 111.151 27.76 111.151 26.992C111.151 26.384 111.023 25.904 110.767 25.552C110.511 25.2 110.015 24.88 109.279 24.592C108.543 24.272 107.375 23.888 105.775 23.44C103.247 22.704 101.359 21.68 100.111 20.368C98.8631 19.056 98.2391 17.424 98.2391 15.472C98.2391 14 98.6551 12.688 99.4871 11.536C100.351 10.352 101.567 9.424 103.135 8.752C104.735 8.048 106.575 7.696 108.655 7.696Z" fill="#141414"/>
</svg>
